<?xml version="1.0" encoding="utf-8"?>
<!-- Generator: Adobe Illustrator 23.0.2, SVG Export Plug-In . SVG Version: 6.00 Build 0)  -->
<svg version="1.1" id="Layer_1" xmlns="http://www.w3.org/2000/svg" xmlns:xlink="http://www.w3.org/1999/xlink" x="0px" y="0px"
	 viewBox="0 0 20.3 18.8" enable-background="new 0 0 20.3 18.8" xml:space="preserve">
<path fill="#231F20" d="M19.5,7.2h-3.2l-3.4-6.8c-0.2-0.4-0.6-0.5-1-0.3s-0.5,0.6-0.3,1l3.1,6.1H5.6l3.1-6.1c0.2-0.4,0-0.8-0.3-1
	c-0.4-0.2-0.8,0-1,0.3L4,7.2H0.8C0.4,7.2,0,7.5,0,8c0,0.4,0.3,0.8,0.8,0.8H1l0.9,3c-0.2,0.1-0.3,0.3-0.3,0.6c0,0.4,0.3,0.7,0.7,0.7
	L4,18.9h12.7l1.7-5.8c0.4,0,0.7-0.3,0.7-0.7c0-0.2-0.1-0.5-0.3-0.6l0.9-3h0.2c0.4,0,0.8-0.3,0.8-0.8C20.3,7.5,20,7.2,19.5,7.2z
	 M15.4,17.3H5L3.8,13h12.9L15.4,17.3z M17,11.5H3.3L2.5,8.7h15.3L17,11.5z"/>
</svg>
