<?xml version="1.0" encoding="utf-8"?>
<!-- Generator: Adobe Illustrator 23.0.2, SVG Export Plug-In . SVG Version: 6.00 Build 0)  -->
<svg version="1.1" id="Layer_2" xmlns="http://www.w3.org/2000/svg" xmlns:xlink="http://www.w3.org/1999/xlink" x="0px" y="0px"
	 viewBox="32.5 20.2 85.6 35" style="enable-background:new 32.5 20.2 85.6 35;" xml:space="preserve">
<g>
	<path d="M36.6,46.5c0-3.8-0.3-7.6-0.4-11.4c0.7,1.9,1.8,3.6,2.5,5.4c0.3,0.7,0.9,1.9,0.9,2.7c0,0.4-0.3,0.7,0,1
		c0.2,0.3,0.7,0.3,1,0.3c0.6,0,1.4-0.3,1.9-0.6c0.8-0.5,0.5-1.2,0.8-1.9c0.6-2,0.9-4.1,1.7-6.1c0.2,2.2,0.2,4.4,0.2,6.7
		c0,1-0.1,2,0.1,3.1c0.1,0.5,0.4,1.2,0.3,1.8c-0.1,0.5-0.6,0.9,0.1,1.3c0.7,0.4,1.8,0,2.4-0.4c1.5-1.1,0.5-3.2,0.4-4.6
		c-0.2-2.1,0.2-4.3,0.1-6.4c-0.1-2.1-0.4-4.2-0.3-6.4c0-1,0.1-2.1,0-3.1c0-0.5-0.2-1-0.3-1.4c0-0.3,0.2-0.8,0-1
		c-0.5-0.7-2.4,0-2.9,0.3c-0.8,0.6-0.5,1.1-0.6,1.9c-0.3,1.2-0.5,2.3-0.9,3.4c-0.7,2.3-1.5,4.6-2.3,6.9c-1.5-2.9-2.5-5.9-3.8-8.9
		c-0.3-0.7-0.7-1.5-1-2.2c-0.1-0.4-0.2-0.7-0.5-1c-0.6-0.5-1.8-0.3-2.4,0.1c-1,0.6-1.1,2.2-1.1,3.3c0,1.6,0.4,3.2,0.4,4.8
		c0.1,3.4,0.2,6.8,0.3,10.1c0,0.5,0,0.9,0,1.4c0,0.2,0,0.4,0,0.6c-0.1,0.3-0.3,0.4-0.3,0.7c0,0.6,0.7,1,1.2,1.1
		C35.1,48,36.6,47.6,36.6,46.5z"/>
	<path d="M52.7,28.2c-0.3,0.1-0.9,0.3-1.1,0.6c-0.3,0.5,0,1.5,0,2c0.1,1.9-0.1,3.7,0.1,5.6c0.3,1.9,0.6,3.7,0.6,5.6
		c0,0.9-0.1,1.8,0.1,2.6c0.1,0.6,0.3,1.3,0.3,1.9c0,0.2-0.3,1.1-0.3,1.2c0.1,0.3,0.9,0.1,1.1,0.1c1.2-0.1,2.5-0.6,2.5-2
		c0-0.6-0.2-1.3-0.3-1.9c-0.1-1-0.1-2-0.1-3c0-1.1,0-2.1-0.1-3.1c-0.1-1-0.4-2-0.5-3c-0.2-2.2,0.1-4.5-0.2-6.7
		C54.8,27.6,53,28.1,52.7,28.2z"/>
	<path d="M58,34.8c1.3,3.7,6.9-0.5,8.5,2.7c0.7,1.4,0.4,3.2,0.3,4.7c-0.1,1.4,1.4,4.1-0.4,4.8c-0.8,0.3-1.8,0.3-2.6,0.3
		c-1.1,0-1.7-0.5-1.8-1.7c0-0.6,0.1-1.2,0.2-1.7c0.1-0.4,0.3-1.2,0.1-1.6c-0.3-0.5-1.1-0.3-1.5-0.3c-0.5,0.1-1.4,0.3-1.7,0.8
		c-0.3,0.5-0.1,1.6-0.1,2.2c-0.1,1.8-0.1,3.4,2,3.6c2.4,0.3,5.3-0.2,7.5-1.3c0.9-0.5,2-1.1,2.1-2.2c0.1-1.1-0.4-2.2-0.4-3.3
		c-0.1-2.2,0.6-5.2-1.6-6.7c-1.7-1.1-3.9-0.2-5.7-0.4c-2.4-0.3-1.8-3.1-1.9-4.9c-0.1-1.1-0.5-2.5,0.1-3.5c0.5-0.8,1.4-0.8,2.3-0.8
		c0.7,0,1.5,0.1,2.1,0.4c0.3,0.1,0.6,0.3,0.8,0.6c0.3,0.4,0,0.7,0.1,1.1c0.2,1,2.7,0.3,3.2-0.3c0.9-1.3-0.5-2.6-1.6-2.9
		c-1.5-0.5-3.2-0.4-4.8-0.2c-1.7,0.2-3.6,0.7-4.8,2c-1,1-1,2.3-0.8,3.6C57.7,31.4,57.4,33.3,58,34.8z"/>
	<path d="M72.4,36.7c0,1.6-0.2,3.2-0.2,4.8c0,1.6,0.3,3.1,0.5,4.7c0.1,0.8-0.5,1.6,0.6,1.7c0.7,0,1.7-0.1,2.3-0.5
		c0.8-0.6,0.5-2.1,0.4-3c-0.2-1.5-0.5-2.8-0.4-4.3c0-0.5-0.1-1.7,0.1-2.2c0.2-0.4,1.8-0.3,2.4-0.3c0.7,0,1.7-0.1,2.4,0.1
		c0.4,0.1,0.3,0,0.4,0.2c0.1,0.1,0,0.4,0,0.6c0,0.5,0.1,1,0.1,1.5c0.1,1.5,0.2,3,0.3,4.5c0,0.6,0.1,1.2,0,1.8
		c-0.1,0.4-0.3,0.9-0.2,1.3c0.2,0.7,1.2,0.7,1.7,0.6c0.9-0.1,1.4-0.6,1.6-1.4c0.8-2.8,0-6.1-0.2-9c-0.3-3.2-0.5-6.5-0.7-9.7
		c0-1,0.3-2.5-1-2.7c-0.7-0.1-1.8,0.1-2.2,0.7c-0.3,0.5-0.2,1.1-0.2,1.7c0,0.9,0.1,1.9,0.2,2.8c0.1,1.8,0.3,3.5,0.4,5.3
		c-1.6,0-3.3,0.1-4.9,0.2c0.1-2.7-0.2-5.4-0.3-8.2c0-0.7-0.1-1.4-0.1-2.1c0-0.3,0.2-1.2,0-1.5c-0.2-0.3-1.2-0.1-1.5,0
		c-0.5,0.1-1.3,0.2-1.6,0.7c-0.5,0.7-0.1,2.4-0.1,3.2C72.2,31.1,72.5,33.9,72.4,36.7z"/>
	<path d="M85.9,31.7c0.1,1.7,0.3,3.4,0.4,5.1c0.1,0.9,0.1,1.8,0.2,2.8c0,0.5,0.3,2.1,0,2.4c-0.1,0.1-0.1,0.2-0.1,0.4
		c0.1,0,0.1,0.1,0.2,0.1c0,0.2,0,0.4,0,0.6c0,0.5,0,1,0,1.5c0,0.6,0,1.1-0.1,1.7c0,0.3-0.2,0.9-0.2,1.2c0.3,1,2.5,0.4,3.1-0.1
		c0.6-0.5,0.4-1.7,0.4-2.4c0-1-0.2-2.3,0.1-3.2c0.2-0.8,1.2-1.6,1.7-2.3c0.6-0.8,1.2-1.7,1.7-2.6c1,2,1.7,4.1,2.6,6.2
		c0.4,1.1,0.9,2.1,1.3,3.2c0.3,0.7,0.3,1.6,1.1,1.9c0.9,0.3,2.5-0.1,2.6-1.2c0.1-0.8-0.5-1.9-0.8-2.6c-0.5-1.1-1-2.2-1.4-3.3
		c-0.8-2.2-1.7-4.2-2.8-6.3c-0.2-0.4-0.7-1.1-0.7-1.5c0-0.4,0.7-1.3,0.8-1.6c0.6-1.1,1.1-2.2,1.6-3.3c0.4-0.8,0.7-1.7,1.1-2.4
		c0.2-0.4,0.4-0.8,0.7-1.1c0.2-0.2,1-0.8,1.1-1.1c0.1-0.7-1.5-0.4-1.9-0.3c-0.9,0.3-1.7,1-2.3,1.7c-1.5,1.8-2.3,4.3-3.3,6.4
		c-0.3,0.5-0.5,1-0.8,1.5c-0.4,0.5-0.4,0.7-0.6,1.3c-0.4,1.2-1.3,2.4-1.9,3.6c-0.2-3.5-0.5-7-0.8-10.5c-0.1-0.9-0.1-1.8-0.2-2.7
		c0-0.4,0.1-0.9-0.3-1.2c-0.6-0.4-1.7,0-2.2,0.2c-1.1,0.6-0.8,1.5-0.8,2.6C85.6,28.1,85.8,29.9,85.9,31.7z"/>
	<path d="M118,35.8c-0.2-0.8-1.3-0.7-1.9-0.6c-0.1-2.4-0.1-4.8-0.3-7.2c-0.1-1.7-0.8-2.9-2.6-3.1c-2.1-0.2-4.5,0.3-6.5,0.9
		c-1.8,0.6-3.2,1.6-4,3.4c-0.9,2.1-0.7,4.4-0.4,6.6c0.3,2.5,0.3,4.9,0.3,7.4c0,1.3-0.1,2.6,0,3.9c0,0.6,0.3,0.6,0.9,0.6
		c0.6,0,1.3-0.2,1.8-0.4c0.8-0.4,0.6-1,0.6-1.8c0-1.4,0-2.9,0-4.3c0-0.7,0-1.5,0-2.2c0-0.5-0.2-1.2,0.2-1.5c0.7-0.5,2.3,0,3,0.1
		c1.3,0.2,2.4,0,3.7-0.1c0,2.6,0.3,5.2,0.3,7.8c0,0.5,0,1-0.2,1.5c-0.1,0.3-0.4,0.4-0.1,0.6c0.3,0.3,1.5,0,1.8-0.1
		c2.3-0.7,1.7-3,1.6-4.9c-0.1-1.4-0.1-2.8-0.1-4.2c0-0.6-0.1-0.6,0.3-0.8c0.3-0.1,0.6-0.2,0.8-0.3C117.7,36.7,118.2,36.3,118,35.8z
		 M112.4,35.6c-0.3,0.1-0.8,0-1.1,0c-1.9,0-3.8-0.4-5.7,0c-0.2-2.2-0.6-4.5,0-6.6c0.3-0.9,0.7-1.7,1.4-2.3c0.7-0.6,1.9-0.5,2.8-0.6
		c2.3-0.3,2.6,1.5,2.6,3.4c0,1.1,0,2.2,0.1,3.3c0,0.6,0.1,1.3,0.1,1.9C112.8,35.4,112.9,35.4,112.4,35.6z"/>
	<path d="M51.2,24.3c-0.1,0.5,0.3,1.3,0.8,1.5c0.7,0.3,1.5,0,2.1-0.4c0.7-0.5,0.9-0.8,0.7-1.6c-0.2-0.8-0.2-1.6-0.2-2.4
		c-0.1-1.3-1.4-1.4-2.4-0.9C50.5,21.2,51.5,23,51.2,24.3z"/>
	<path d="M112.7,53.5c-2.5-0.9-5.4-0.9-8-1.2c-2.3-0.3-4.6-0.2-6.9,0c-3.1,0.2-6.3,0.3-9.4,0.4c-11.6,0.3-23.2-0.6-34.8-0.5
		c-3.2,0-6.6-0.1-9.8,0.3c-1.5,0.2-3,0.5-4.5,0.8c-1.6,0.4-3.2,0.9-4.8,1c2.7,0.6,5.6,0.3,8.3,0.4c2.8,0.2,5.7-0.1,8.5-0.1
		c5.9-0.1,11.7,0.1,17.6,0.3c9.5,0.3,18.9,0.3,28.4-0.2c2.1-0.1,4.3,0,6.5-0.2c1.6-0.2,3.3-0.3,4.9-0.6c1.4-0.2,2.8-0.5,4.2-0.4
		c0-0.2,0-0.4,0-0.5C112.8,53.3,112.8,53.4,112.7,53.5z"/>
</g>
</svg>
