<?xml version="1.0" encoding="utf-8"?>
<!-- Generator: Adobe Illustrator 23.0.2, SVG Export Plug-In . SVG Version: 6.00 Build 0)  -->
<svg version="1.1" id="Laag_1" xmlns="http://www.w3.org/2000/svg" xmlns:xlink="http://www.w3.org/1999/xlink" x="0px" y="0px"
	 viewBox="247.3 382.6 100.7 76.9" enable-background="new 247.3 382.6 100.7 76.9" xml:space="preserve">
<g>
	<g>
		<g>
			<path fill="#63D1BB" d="M344.3,400.7c0,0-0.9-7-3.8-10.1c-3.6-4-7.7-4.1-9.5-4.3c-13.3-1-33.3-1-33.3-1h-0.1c0,0-20,0-33.3,1
				c-1.9,0.2-5.9,0.3-9.5,4.3c-2.8,3.1-3.8,10.1-3.8,10.1s-0.9,8.2-0.9,16.4v7.7c0,8.2,0.9,16.4,0.9,16.4s0.9,7,3.8,10.1
				c3.6,4,8.4,3.9,10.5,4.3c7.6,0.8,32.4,1,32.4,1s20,0,33.3-1c1.9-0.2,5.9-0.3,9.5-4.3c2.8-3.1,3.8-10.1,3.8-10.1s0.9-8.2,0.9-16.4
				v-7.7C345.2,408.9,344.3,400.7,344.3,400.7z"/>
			<path fill="#FFFFFF" d="M297.6,459.4L297.6,459.4c-1,0-25-0.3-32.6-1l-0.1,0l-0.1,0c-0.3-0.1-0.7-0.1-1.1-0.2
				c-2.5-0.3-7.2-0.9-10.8-5c-3.4-3.6-4.4-10.8-4.5-11.6l0,0c0-0.3-1-8.5-1-16.7v-7.7c0-8.3,0.9-16.4,0.9-16.7l0-0.1
				c0.1-0.8,1.2-7.9,4.5-11.6c4-4.4,8.5-4.9,10.7-5.1c0.2,0,0.4,0,0.5-0.1l0.1,0c13.3-1,33.3-1,33.5-1h0.1c0.2,0,20.2,0,33.5,1
				l0.1,0c0.2,0,0.3,0,0.5,0.1c2.2,0.2,6.7,0.7,10.7,5.1c3.4,3.6,4.4,10.8,4.5,11.6l0,0c0,0.3,1,8.5,1,16.8v7.7
				c0,8.3-0.9,16.4-1,16.7l0,0.1c-0.1,0.8-1.2,8-4.5,11.6c-4,4.4-8.5,4.9-10.7,5.1c-0.2,0-0.4,0-0.5,0.1l-0.1,0
				C317.9,459.4,297.8,459.4,297.6,459.4L297.6,459.4L297.6,459.4z M265.7,453c7.5,0.7,31.2,1,32,1c0.7,0,20.1,0,33-1
				c0.2,0,0.4,0,0.6-0.1c1.8-0.2,4.6-0.5,7.2-3.3l0,0c1.8-2,2.9-6.9,3.1-8.6c0.1-0.5,0.9-8.4,0.9-16.1v-7.7c0-7.8-0.9-15.6-1-16.1
				c-0.3-2.4-1.4-6.8-3.1-8.5l0,0c-2.6-2.9-5.4-3.1-7.2-3.3c-0.2,0-0.4,0-0.6-0.1c-13.1-1-32.8-1-33-1h-0.1c-0.2,0-20,0-33,1
				c-0.2,0-0.4,0-0.6,0.1c-1.8,0.2-4.6,0.5-7.2,3.3l0,0c-1.8,2-2.9,6.9-3.1,8.6c-0.1,0.6-0.9,8.4-0.9,16.1v7.7
				c0,7.7,0.9,15.6,0.9,16.1c0.3,2.4,1.4,6.8,3.1,8.5l0,0c2.3,2.6,5.3,3,7.5,3.3C264.8,452.8,265.2,452.9,265.7,453z"/>
		</g>
	</g>
	<g>
		<polygon fill="#FFFFFF" points="285.7,403.1 285.7,438.8 315.5,421 		"/>
	</g>
</g>
</svg>
